<?xml version="1.0" standalone="no"?><!DOCTYPE svg PUBLIC "-//W3C//DTD SVG 1.1//EN" "http://www.w3.org/Graphics/SVG/1.1/DTD/svg11.dtd"><svg t="1743688926092" class="icon" viewBox="0 0 1024 1024" version="1.1" xmlns="http://www.w3.org/2000/svg" p-id="1479" xmlns:xlink="http://www.w3.org/1999/xlink" width="200" height="200"><path d="M482.218667 794.325333l-143.850667 75.626667a64 64 0 0 1-92.842667-67.477333l27.456-160.170667a64 64 0 0 0-18.410666-56.64L138.24 472.234667a64 64 0 0 1 35.456-109.162667l160.832-23.381333a64 64 0 0 0 48.170667-35.008l71.936-145.728a64 64 0 0 1 114.773333 0l71.936 145.728a64 64 0 0 0 48.170667 35.008l160.832 23.381333a64 64 0 0 1 35.456 109.162667l-116.352 113.429333a64 64 0 0 0-18.410667 56.64l27.456 160.170667a64 64 0 0 1-92.842667 67.477333l-143.850666-75.626667a64 64 0 0 0-59.562667 0z" fill="#2469FF" p-id="1480"></path></svg>