<?xml version="1.0" encoding="utf-8" ?>
<svg xmlns="http://www.w3.org/2000/svg" xmlns:xlink="http://www.w3.org/1999/xlink" width="1024" height="1024">
	<defs>
		<linearGradient id="gradient_0" gradientUnits="userSpaceOnUse" x1="330.72311" y1="125.94756" x2="68.283607" y2="382.00565">
			<stop offset="0" stop-color="#9AB6EE"/>
			<stop offset="1" stop-color="#B9DCF0"/>
		</linearGradient>
	</defs>
	<path fill="url(#gradient_0)" transform="scale(2 2)" d="M295.863 369.56C281.999 376.836 268.432 384.699 254.705 392.228L188.459 428.175C184.003 430.608 179.603 433.203 174.86 435.048C150.558 444.503 122.349 436.982 103.75 419.336C74.2704 391.366 80.5421 349.946 80.5418 312.921L80.5372 166.895C80.5324 154.761 79.793 142.133 82.0143 130.161C87.7407 99.2963 114.801 74.3658 146.668 73.5647C164.777 71.327 179.078 78.915 194.314 87.199L373.064 183.953C393.983 195.159 411.589 201.895 423.558 224.1C437.489 249.945 432.102 284.923 410.404 304.887C402.153 312.478 391.497 317.571 381.683 322.835L295.863 369.56ZM228.762 207.865C224.331 204.785 219.22 202.275 214.513 199.614C205.237 194.37 193.766 185.053 182.569 187.109C159.365 191.368 162.453 212.47 162.454 229.814L162.443 291.406C162.436 296.285 162.031 301.674 162.975 306.474C165.351 318.558 177.502 326.875 189.581 324.092C201.011 321.459 219.388 308.243 230.961 301.714L261.491 284.316C267.66 280.821 274.621 277.562 280.164 273.154C287.549 266.483 291.142 256.561 287.268 246.951C283.757 238.24 276.737 234.864 269.008 230.479L236.459 212.054C233.958 210.621 231.408 209.008 228.762 207.865Z"/>
	<defs>
		<linearGradient id="gradient_1" gradientUnits="userSpaceOnUse" x1="247.96768" y1="218.52899" x2="146.36707" y2="281.647">
			<stop offset="0" stop-color="#709EED"/>
			<stop offset="1" stop-color="#B3F5F6"/>
		</linearGradient>
	</defs>
	<path fill="url(#gradient_1)" transform="scale(2 2)" d="M228.762 207.865C227.738 207.665 226.989 207.279 226.149 206.642L225.886 206.973L225.849 206.773C225.851 209.544 238.652 223.802 241.543 226.597C246.376 231.271 251.939 239.788 256.921 242.981C258.747 244.152 259.532 244.399 260.118 246.601C264.891 250.655 272.71 257.702 275.84 263.284C277.612 266.443 277.428 270.521 280.164 273.154C274.621 277.562 267.66 280.821 261.491 284.316L230.961 301.714C219.388 308.243 201.011 321.459 189.581 324.092C177.502 326.875 165.351 318.558 162.975 306.474C162.031 301.674 162.436 296.285 162.443 291.406L162.454 229.814C162.453 212.47 159.365 191.368 182.569 187.109C193.766 185.053 205.237 194.37 214.513 199.614C219.22 202.275 224.331 204.785 228.762 207.865Z"/>
	<path fill="#7394F7" transform="scale(2 2)" d="M280.164 273.154C277.428 270.521 277.612 266.443 275.84 263.284C272.71 257.702 264.891 250.655 260.118 246.601C259.532 244.399 258.747 244.152 256.921 242.981C251.939 239.788 246.376 231.271 241.543 226.597C238.652 223.802 225.851 209.544 225.849 206.773L225.886 206.973L226.149 206.642C226.989 207.279 227.738 207.665 228.762 207.865C231.408 209.008 233.958 210.621 236.459 212.054L269.008 230.479C276.737 234.864 283.757 238.24 287.268 246.951C291.142 256.561 287.549 266.483 280.164 273.154Z"/>
</svg>
